<svg width="110" height="110" viewBox="0 0 110 110" fill="none" xmlns="http://www.w3.org/2000/svg">
<g clip-path="url(#clip0_567_322)">
<path d="M6.875 44.3644C5.05164 44.3644 3.30295 45.0887 2.01364 46.378C0.724328 47.6673 0 49.416 0 51.2394L0 58.7056C0 67.8734 13.75 67.8734 13.75 58.7056V51.2394C13.75 49.416 13.0257 47.6673 11.7364 46.378C10.447 45.0887 8.69836 44.3644 6.875 44.3644ZM103.125 44.3644C101.302 44.3644 99.553 45.0887 98.2636 46.378C96.9743 47.6673 96.25 49.416 96.25 51.2394V58.7056C96.25 67.8734 110 67.8734 110 58.7056V51.2394C110 49.416 109.276 47.6673 107.986 46.378C106.697 45.0887 104.948 44.3644 103.125 44.3644ZM30.6144 66.8697C28.791 66.8697 27.0423 67.594 25.753 68.8833C24.4637 70.1726 23.7394 71.9213 23.7394 73.7447V81.2109C23.7394 90.3788 37.4894 90.3788 37.4894 81.2109V73.7997C37.4894 69.9875 34.4266 66.9247 30.6144 66.9247V66.8697ZM30.6144 21.8591C28.791 21.8591 27.0423 22.5834 25.753 23.8727C24.4637 25.162 23.7394 26.9107 23.7394 28.7341V53.2984C23.7394 62.4663 37.4894 62.4663 37.4894 53.2984V28.6997C37.4894 24.8875 34.4266 21.8247 30.6144 21.8247V21.8591ZM79.3856 21.8591C75.5734 21.8591 72.5106 24.9391 72.5106 28.7341V36.2553C72.5106 45.4231 86.2606 45.4231 86.2606 36.2553V28.7341C86.2606 26.9107 85.5363 25.162 84.247 23.8727C82.9577 22.5834 81.209 21.8591 79.3856 21.8591ZM55 0C53.1766 0 51.428 0.724328 50.1386 2.01364C48.8493 3.30295 48.125 5.05164 48.125 6.875V14.3412C48.125 23.5091 61.875 23.5091 61.875 14.3412V6.875C61.875 5.05164 61.1507 3.30295 59.8614 2.01364C58.572 0.724328 56.8234 0 55 0ZM55 88.7322C53.1766 88.7322 51.428 89.4565 50.1386 90.7458C48.8493 92.0351 48.125 93.7838 48.125 95.6072V103.128C48.0906 112.296 61.8406 112.348 61.875 103.183V95.6622C61.875 91.9016 58.795 88.7872 55 88.7872V88.7322ZM79.3856 49.9503C75.5734 49.9503 72.5106 53.0647 72.5106 56.8253V81.2625C72.5106 90.4303 86.2606 90.4303 86.2606 81.2625V56.8253C86.2606 55.0019 85.5363 53.2533 84.247 51.964C82.9577 50.6746 81.209 49.9503 79.3856 49.9503ZM55 28.0912C51.205 28.0912 48.125 31.2056 48.125 34.9663V74.9822C48.125 84.15 61.875 84.15 61.875 74.9822V35.0212C61.875 31.2091 58.795 28.1462 55 28.1462V28.0912Z" fill="#8286AC"/>
</g>
<defs>
<clipPath id="clip0_567_322">
<rect width="110" height="110" fill="white"/>
</clipPath>
</defs>
</svg>
