<svg width="68" height="68" viewBox="0 0 68 68" fill="none" xmlns="http://www.w3.org/2000/svg">
<path d="M7.08333 28.3333C7.83478 28.3333 8.55545 28.6318 9.0868 29.1632C9.61816 29.6946 9.91667 30.4152 9.91667 31.1667V36.8333C9.91667 37.5848 9.61816 38.3054 9.0868 38.8368C8.55545 39.3682 7.83478 39.6667 7.08333 39.6667C6.33189 39.6667 5.61122 39.3682 5.07986 38.8368C4.54851 38.3054 4.25 37.5848 4.25 36.8333V31.1667C4.25 30.4152 4.54851 29.6946 5.07986 29.1632C5.61122 28.6318 6.33189 28.3333 7.08333 28.3333ZM34 21.25C34.7514 21.25 35.4721 21.5485 36.0035 22.0799C36.5348 22.6112 36.8333 23.3319 36.8333 24.0833V43.9167C36.8333 44.6681 36.5348 45.3888 36.0035 45.9201C35.4721 46.4515 34.7514 46.75 34 46.75C33.2486 46.75 32.5279 46.4515 31.9965 45.9201C31.4652 45.3888 31.1667 44.6681 31.1667 43.9167V24.0833C31.1667 23.3319 31.4652 22.6112 31.9965 22.0799C32.5279 21.5485 33.2486 21.25 34 21.25ZM19.8333 41.0833C20.5848 41.0833 21.3054 41.3818 21.8368 41.9132C22.3682 42.4445 22.6667 43.1652 22.6667 43.9167V49.5833C22.6667 50.3348 22.3682 51.0555 21.8368 51.5868C21.3054 52.1182 20.5848 52.4167 19.8333 52.4167C19.0819 52.4167 18.3612 52.1182 17.8299 51.5868C17.2985 51.0555 17 50.3348 17 49.5833V43.9167C17 43.1652 17.2985 42.4445 17.8299 41.9132C18.3612 41.3818 19.0819 41.0833 19.8333 41.0833ZM34 52.4167C34.7514 52.4167 35.4721 52.7152 36.0035 53.2465C36.5348 53.7779 36.8333 54.4986 36.8333 55.25V60.9167C36.8333 61.6681 36.5348 62.3888 36.0035 62.9201C35.4721 63.4515 34.7514 63.75 34 63.75C33.2486 63.75 32.5279 63.4515 31.9965 62.9201C31.4652 62.3888 31.1667 61.6681 31.1667 60.9167V55.25C31.1667 54.4986 31.4652 53.7779 31.9965 53.2465C32.5279 52.7152 33.2486 52.4167 34 52.4167ZM19.8333 17C20.5848 17 21.3054 17.2985 21.8368 17.8299C22.3682 18.3612 22.6667 19.0819 22.6667 19.8333V32.5833C22.6667 33.3348 22.3682 34.0554 21.8368 34.5868C21.3054 35.1182 20.5848 35.4167 19.8333 35.4167C19.0819 35.4167 18.3612 35.1182 17.8299 34.5868C17.2985 34.0554 17 33.3348 17 32.5833V19.8333C17 19.0819 17.2985 18.3612 17.8299 17.8299C18.3612 17.2985 19.0819 17 19.8333 17ZM60.9167 28.3333C61.6681 28.3333 62.3888 28.6318 62.9201 29.1632C63.4515 29.6946 63.75 30.4152 63.75 31.1667V36.8333C63.75 37.5848 63.4515 38.3054 62.9201 38.8368C62.3888 39.3682 61.6681 39.6667 60.9167 39.6667C60.1652 39.6667 59.4445 39.3682 58.9132 38.8368C58.3818 38.3054 58.0833 37.5848 58.0833 36.8333V31.1667C58.0833 30.4152 58.3818 29.6946 58.9132 29.1632C59.4445 28.6318 60.1652 28.3333 60.9167 28.3333ZM48.1667 15.5833C48.9181 15.5833 49.6388 15.8818 50.1701 16.4132C50.7015 16.9446 51 17.6652 51 18.4167V24.0833C51 24.8348 50.7015 25.5554 50.1701 26.0868C49.6388 26.6182 48.9181 26.9167 48.1667 26.9167C47.4152 26.9167 46.6945 26.6182 46.1632 26.0868C45.6318 25.5554 45.3333 24.8348 45.3333 24.0833V18.4167C45.3333 17.6652 45.6318 16.9446 46.1632 16.4132C46.6945 15.8818 47.4152 15.5833 48.1667 15.5833ZM34 4.25C34.7514 4.25 35.4721 4.54851 36.0035 5.07986C36.5348 5.61122 36.8333 6.33189 36.8333 7.08333V12.75C36.8333 13.5014 36.5348 14.2221 36.0035 14.7535C35.4721 15.2848 34.7514 15.5833 34 15.5833C33.2486 15.5833 32.5279 15.2848 31.9965 14.7535C31.4652 14.2221 31.1667 13.5014 31.1667 12.75V7.08333C31.1667 6.33189 31.4652 5.61122 31.9965 5.07986C32.5279 4.54851 33.2486 4.25 34 4.25ZM48.1667 32.5833C48.9181 32.5833 49.6388 32.8818 50.1701 33.4132C50.7015 33.9446 51 34.6652 51 35.4167V48.1667C51 48.9181 50.7015 49.6388 50.1701 50.1701C49.6388 50.7015 48.9181 51 48.1667 51C47.4152 51 46.6945 50.7015 46.1632 50.1701C45.6318 49.6388 45.3333 48.9181 45.3333 48.1667V35.4167C45.3333 34.6652 45.6318 33.9446 46.1632 33.4132C46.6945 32.8818 47.4152 32.5833 48.1667 32.5833Z" stroke="#8286AC" stroke-width="0.490323" stroke-linecap="round" stroke-linejoin="round"/>
</svg>
