<svg class="absolute inset-0 w-full h-full text-white/30 z-0" xmlns="http://www.w3.org/2000/svg"><defs><pattern id="brick-pattern" x="0" y="0" width="437" height="294" patternUnits="userSpaceOnUse"><path d="M417.903 63.867c5.802 0 11.632.168 17.432 0 .253-.007.508 0 .762 0 1.197 0 1.206-3.453 0-3.453H399.617c.005-.1.007-.193.007-.274V33.855c0-.082-.002-.175-.006-.274h18.285c5.802 0 11.632.167 17.432 0 .254-.008.508 0 .762 0 1.197 0 1.207-3.453 0-3.453h-73.648c.005-.1.007-.193.007-.274V3.569c0-1.04-.306-3.569-1.784-3.569-1.471 0-1.784 2.596-1.784 3.569v26.285c0 .082.002.175.006.274h-70.781c.005-.1.007-.193.007-.274V3.569c0-1.04-.306-3.569-1.784-3.569-1.471 0-1.785 2.596-1.785 3.569v26.285c0 .082.003.175.007.274H213.777c.005-.1.007-.193.007-.274V3.569c0-1.04-.306-3.569-1.784-3.569-1.471 0-1.785 2.596-1.785 3.569v26.285c0 .082.002.175.007.274h-70.781c.004-.1.007-.193.007-.274V3.569c0-1.04-.306-3.569-1.784-3.569-1.472 0-1.785 2.596-1.785 3.569v26.285c0 .082.002.175.007.274H65.105c.004-.1.007-.193.007-.274V3.569c0-1.04-.306-3.569-1.784-3.569-1.472 0-1.785 2.596-1.785 3.569v26.285c0 .082.002.175.007.274H6.095c-5.8 0-11.63-.168-17.43 0-.254.007-.509 0-.763 0-1.197 0-1.206 3.453 0 3.453H24.382c-.005.1-.007.193-.007.274V60.14c0 .082.002.175.006.274H6.096c-5.802 0-11.632-.167-17.432 0-.253.008-.508 0-.762 0-1.197 0-1.207 3.453 0 3.453H61.55c-.005.1-.007.194-.007.274v26.286c0 .082.002.175.006.274H6.095c-5.801 0-11.631-.168-17.43 0-.254.007-.51 0-.763 0-1.197 0-1.207 3.453 0 3.453H24.382c-.005.1-.007.193-.007.274v26.285c0 .082.002.175.006.274H6.095c-5.801 0-11.631-.168-17.431 0-.254.007-.508 0-.762 0-1.197 0-1.207 3.453 0 3.453H61.55a5.854 5.854 0 0 0-.007.274v26.285c0 .083.002.175.006.275H6.095c-5.801 0-11.631-.168-17.431 0-.254.007-.508 0-.762 0-1.197 0-1.207 3.452 0 3.452H24.382a6.025 6.025 0 0 0-.008.275v26.285c0 .082.003.175.007.274H6.095c-5.801 0-11.631-.168-17.431 0-.254.007-.508 0-.762 0-1.198 0-1.207 3.453 0 3.453H61.55a5.82 5.82 0 0 0-.008.274v26.285c0 .083.003.175.007.274H6.095c-5.801 0-11.631-.167-17.431 0-.254.008-.508 0-.762 0-1.198 0-1.207 3.453 0 3.453H24.382a5.889 5.889 0 0 0-.008.274v26.286c0 .082.002.175.007.274H6.095c-5.802 0-11.632-.168-17.431 0-.254.007-.509 0-.762 0-1.198 0-1.207 3.453 0 3.453H61.55a5.82 5.82 0 0 0-.008.274v26.285c0 .082.002.175.007.274H6.095c-5.802 0-11.632-.168-17.431 0-.254.008-.509 0-.762 0-1.198 0-1.207 3.453 0 3.453H24.382a5.854 5.854 0 0 0-.008.274v26.285c0 1.039.306 3.569 1.784 3.569 1.472 0 1.785-2.596 1.785-3.569v-26.285c0-.082-.002-.175-.007-.274H98.718a5.854 5.854 0 0 0-.008.274v26.285c0 1.039.307 3.569 1.785 3.569 1.471 0 1.784-2.596 1.784-3.569v-26.285c0-.082-.002-.175-.006-.274h70.781a5.564 5.564 0 0 0-.007.274v26.285c0 1.039.306 3.569 1.784 3.569 1.471 0 1.784-2.596 1.784-3.569v-26.285c0-.082-.002-.175-.006-.274h70.781a5.564 5.564 0 0 0-.007.274v26.285c0 1.039.306 3.569 1.784 3.569 1.471 0 1.785-2.596 1.785-3.569v-26.285a7.01 7.01 0 0 0-.007-.274H321.726a5.564 5.564 0 0 0-.007.274v26.285c0 1.039.306 3.569 1.784 3.569 1.471 0 1.785-2.596 1.785-3.569v-26.285c0-.082-.002-.175-.007-.274h70.781a7.159 7.159 0 0 0-.007.274v26.285c0 1.039.306 3.569 1.784 3.569 1.472 0 1.785-2.596 1.785-3.569v-26.285c0-.082-.002-.175-.007-.274h18.286c5.802 0 11.632.168 17.432 0 .253-.007.508 0 .762 0 1.197 0 1.206-3.453 0-3.453h-73.648c.004-.1.007-.193.007-.274V245.86c0-.083-.002-.175-.007-.274H417.903c5.802 0 11.632.167 17.432 0 .253-.008.508 0 .762 0 1.197 0 1.207-3.453 0-3.453H399.617c.005-.101.007-.194.007-.274v-26.286c0-.082-.002-.175-.006-.274h18.286c5.801 0 11.631.168 17.431 0 .254-.007.509 0 .762 0 1.198 0 1.207-3.453 0-3.453h-73.648c.005-.1.008-.193.008-.274v-26.285a7.01 7.01 0 0 0-.007-.274H417.904c5.802 0 11.631.168 17.431 0 .254-.008.509 0 .763 0 1.197 0 1.206-3.453 0-3.453H399.618c.004-.101.007-.193.007-.274v-26.285c0-.083-.002-.175-.007-.275h18.286c5.802 0 11.632.168 17.432 0 .253-.007.508 0 .762 0 1.197 0 1.207-3.452 0-3.452H362.45c.005-.101.007-.194.007-.275v-26.285c0-.082-.002-.175-.006-.274h55.453c5.802 0 11.632.168 17.432 0 .254-.007.508 0 .762 0 1.197 0 1.207-3.453 0-3.453H399.618c.005-.101.007-.193.007-.274V94.428c0-.083-.002-.175-.006-.275h18.286c5.801 0 11.631.168 17.431 0 .254-.007.509 0 .762 0 1.198 0 1.207-3.452 0-3.452H362.45c.005-.1.008-.194.008-.274V64.14a5.48 5.48 0 0 0-.007-.274h55.452Zm-36.879-30.286h15.038c-.005.1-.007.193-.007.274V60.14c0 .082.002.175.006.274H325.28c.005-.1.007-.193.007-.274V33.855c0-.082-.002-.175-.006-.274h55.743Zm-59.298 0c-.005.1-.007.193-.007.274V60.14c0 .082.002.175.006.274h-70.781c.005-.1.007-.193.007-.274V33.855c0-.082-.002-.175-.006-.274H321.726ZM284.557 90.7h-70.781c.005-.1.007-.194.007-.274V64.14c0-.082-.002-.175-.006-.274h70.781c-.005.1-.007.194-.007.274v26.286c0 .082.002.175.006.274Zm37.168 30.286h-70.781c.005-.101.007-.193.007-.274V94.428c0-.083-.002-.175-.006-.275H321.726c-.005.101-.007.194-.007.275v26.285c0 .083.002.175.006.274Zm-37.168 30.287h-70.781c.005-.101.007-.194.007-.274v-26.286c0-.082-.002-.175-.006-.274h70.781a5.594 5.594 0 0 0-.007.274V151c0 .082.002.175.006.274Zm37.168 30.286h-70.781c.005-.101.007-.193.007-.274v-26.285a6.85 6.85 0 0 0-.006-.274H321.726c-.005.1-.007.193-.007.274v26.285c0 .082.002.175.006.274Zm-37.168 30.287h-70.781c.005-.101.007-.194.007-.275v-26.285c0-.082-.002-.175-.006-.274h70.781a5.564 5.564 0 0 0-.007.274v26.285c0 .083.002.175.006.275Zm37.168 30.286h-70.781c.005-.101.007-.193.007-.274v-26.285c0-.083-.002-.175-.006-.275H321.726a5.603 5.603 0 0 0-.007.275v26.285c0 .082.002.175.006.274Zm-145.117 0c.005-.101.007-.193.007-.274v-26.285c0-.083-.002-.175-.006-.275h70.781a5.696 5.696 0 0 0-.008.275v26.285c0 .082.003.175.007.274h-70.781Zm-74.337 0c.005-.101.008-.193.008-.274v-26.285c0-.083-.002-.175-.007-.275h70.782a5.696 5.696 0 0 0-.008.275v26.285c0 .082.002.175.007.274h-70.782Zm37.169-57.12h70.782a5.658 5.658 0 0 0-.008.274v26.285c0 .083.002.175.007.275H139.44c.005-.101.007-.194.007-.275v-26.285c0-.082-.002-.175-.007-.274Zm-37.168-30.287h70.782a5.696 5.696 0 0 0-.008.275v26.285c0 .082.002.175.007.274h-70.782c.005-.101.008-.193.008-.274v-26.285c0-.083-.003-.175-.007-.275Zm37.168-30.286h70.782a5.658 5.658 0 0 0-.008.274v26.285c0 .083.002.175.007.275H139.44c.005-.101.007-.194.007-.275v-26.285c0-.082-.002-.175-.007-.274Zm-37.168-30.287h70.782a5.67 5.67 0 0 0-.008.275v26.285c0 .082.002.175.007.274h-70.782c.005-.101.008-.193.008-.274V94.428c0-.083-.003-.175-.007-.275Zm37.168-30.286h70.782a5.67 5.67 0 0 0-.008.274v26.286c0 .082.002.175.007.274H139.44c.005-.1.007-.194.007-.274V64.14a5.48 5.48 0 0 0-.007-.274Zm107.949 57.12h-70.781c.005-.101.007-.193.007-.274V94.428c0-.083-.002-.175-.006-.275h70.781a5.67 5.67 0 0 0-.008.275v26.285c0 .083.003.175.007.274Zm0 60.573h-70.781c.005-.101.007-.193.007-.274v-26.285a6.85 6.85 0 0 0-.006-.274h70.781c-.005.1-.008.193-.008.274v26.285c0 .082.003.175.007.274Zm.001-147.98a5.67 5.67 0 0 0-.008.275V60.14c0 .082.003.175.007.274h-70.781c.005-.1.007-.193.007-.274V33.855c0-.082-.002-.175-.006-.274h70.781Zm-74.337 0c-.004.102-.007.194-.007.275V60.14c0 .082.002.175.007.274h-70.782c.005-.1.008-.193.008-.274V33.855c0-.082-.003-.175-.007-.274h70.781ZM27.935 60.415c.005-.1.007-.193.007-.274V33.855a6.26 6.26 0 0 0-.006-.274h70.781c-.004.1-.007.193-.007.274V60.14c0 .082.002.175.007.274H27.934Zm37.17 3.453h70.78c-.004.1-.007.194-.007.274v26.286c0 .082.002.175.007.274H65.103c.005-.1.008-.194.008-.274V64.14c0-.082-.003-.175-.007-.274Zm-37.17 57.12c.005-.101.007-.193.007-.274V94.428a6.26 6.26 0 0 0-.006-.275h70.781c-.004.101-.007.194-.007.275v26.285c0 .082.002.175.007.274H27.934Zm37.17 3.453h70.78a7.159 7.159 0 0 0-.007.274v26.285c0 .083.002.175.007.275H65.103c.005-.101.008-.194.008-.275v-26.285c0-.082-.003-.175-.007-.274Zm-37.17 57.12c.005-.101.007-.193.007-.274v-26.285c0-.083-.002-.175-.006-.274h70.781a5.82 5.82 0 0 0-.007.274v26.285c0 .082.002.175.007.274H27.934Zm37.17 3.453h70.78a7.159 7.159 0 0 0-.007.274v26.285c0 .083.002.175.007.275H65.103c.005-.101.008-.194.008-.275v-26.285c0-.082-.003-.175-.007-.274Zm-37.17 57.12c.005-.101.007-.193.007-.274v-26.285c0-.083-.002-.175-.006-.275h70.781a5.894 5.894 0 0 0-.007.275v26.285c0 .082.002.175.007.274H27.934Zm37.168 30.286c.005-.1.008-.193.008-.274V245.86c0-.082-.002-.175-.007-.274h70.781c-.004.1-.007.193-.007.274v26.285c0 .083.002.175.007.274H65.103Zm89.649 0H139.44c.005-.1.007-.193.007-.274V245.86c0-.082-.002-.175-.007-.274h70.782c-.005.1-.007.193-.007.274v26.285c0 .083.002.175.006.274h-55.469Zm65.313 0h-6.289c.005-.1.007-.193.007-.274V245.86c0-.082-.002-.175-.006-.274h70.781c-.005.1-.007.193-.007.274v26.285c0 .083.002.175.006.274h-64.492Zm138.828 0h-70.781c.005-.1.007-.193.007-.274V245.86c0-.082-.002-.175-.006-.274h70.781c-.005.1-.007.193-.007.274v26.285c0 .083.002.175.006.274Zm37.169-57.12a7.21 7.21 0 0 0-.007.274v26.286c0 .082.002.175.007.274H325.28c.005-.101.007-.194.007-.274v-26.286c0-.082-.002-.175-.006-.274h70.781Zm-37.169-3.452h-70.781c.005-.101.007-.194.007-.275v-26.285c0-.082-.002-.175-.006-.274h70.781a5.564 5.564 0 0 0-.007.274v26.285c0 .083.002.175.006.275Zm37.169-57.121a7.207 7.207 0 0 0-.007.275v26.285c0 .082.002.175.007.274H325.28c.005-.101.007-.193.007-.274v-26.285c0-.083-.002-.175-.006-.275h70.781Zm-37.169-3.452h-70.781c.005-.101.007-.194.007-.274v-26.286c0-.082-.002-.175-.006-.274h70.781a5.594 5.594 0 0 0-.007.274V151c0 .082.002.175.006.274Zm37.169-57.12c-.004.1-.007.193-.007.274v26.285c0 .082.002.175.007.274H325.28c.005-.101.007-.193.007-.274V94.428c0-.083-.002-.175-.006-.275h70.781ZM358.893 90.7h-70.781c.005-.1.007-.194.007-.274V64.14c0-.082-.002-.175-.006-.274h70.781c-.005.1-.007.194-.007.274v26.286c0 .082.002.175.006.274Z" fill="currentColor" fill-opacity="0.15"></path></pattern></defs><rect width="100%" height="100%" fill="url(#brick-pattern)"></rect></svg>